Coordinates
version=1
nRows=19
nColumns=63
inDegrees=yes

Units are S.I. units (second, meters, Newtons, ...)
If the header above contains a line with 'inDegrees', this indicates whether rotational values are in degrees (yes) or radians (no).

endheader
time	pelvis_tilt	pelvis_list	pelvis_rotation	pelvis_tx	pelvis_ty	pelvis_tz	hip_flexion_r	hip_adduction_r	hip_rotation_r	knee_angle_r	knee_angle_r_beta	ankle_angle_r	subtalar_angle_r	mtp_angle_r	hip_flexion_l	hip_adduction_l	hip_rotation_l	knee_angle_l	knee_angle_l_beta	ankle_angle_l	subtalar_angle_l	mtp_angle_l	L5_S1_Flex_Ext	L5_S1_Lat_Bending	L5_S1_axial_rotation	L4_L5_Flex_Ext	L4_L5_Lat_Bending	L4_L5_axial_rotation	L3_L4_Flex_Ext	L3_L4_Lat_Bending	L3_L4_axial_rotation	L2_L3_Flex_Ext	L2_L3_Lat_Bending	L2_L3_axial_rotation	L1_L2_Flex_Ext	L1_L2_Lat_Bending	L1_L2_axial_rotation	L1_T12_Flex_Ext	L1_T12_Lat_Bending	L1_T12_axial_rotation	Abs_r3	Abs_r2	Abs_r1	Abs_t1	Abs_t2	neck_flexion	neck_bending	neck_rotation	arm_flex_r	arm_add_r	arm_rot_r	elbow_flex_r	pro_sup_r	wrist_flex_r	wrist_dev_r	arm_flex_l	arm_add_l	arm_rot_l	elbow_flex_l	pro_sup_l	wrist_flex_l	wrist_dev_l
2.533333	-0.148013	-3.895001	63.211431	0.194019	0.939800	0.589962	2.145078	1.475811	15.584976	6.130727	0.107001	21.666165	7.965888	0.000000	-0.700940	-1.660207	-20.567951	5.631550	0.098289	22.499677	0.191458	0.000000	0.227360	0.252243	-3.447444	0.422230	0.335484	-3.662909	0.373529	0.613304	-3.662909	0.259850	0.613304	-3.016514	0.211126	0.514375	-2.801048	0.129913	0.390725	-2.585583	1.624009	2.853427	-19.173650	0.000000	0.000000	26.740682	10.293029	11.190362	-22.615464	-30.622159	-6.723498	109.010135	78.469574	5.104645	-3.285672	-29.851732	-17.802044	-10.525482	112.391552	88.783449	-5.971593	-15.616115
2.550000	-0.059886	-3.752581	63.239406	0.193872	0.939930	0.589559	2.014232	1.461216	15.169281	6.304641	0.110037	21.621994	8.236269	0.000000	-0.850657	-1.673802	-20.573532	5.658513	0.098760	22.618984	0.127559	0.000000	0.216321	0.255850	-3.448552	0.401730	0.340280	-3.664087	0.355394	0.622073	-3.664087	0.247233	0.622073	-3.017483	0.200876	0.521728	-2.801949	0.123606	0.396311	-2.586414	1.545160	2.894222	-19.179814	0.000000	0.000000	26.384785	10.065822	11.639353	-23.492284	-32.230561	-4.553748	108.509378	79.736103	3.857206	-6.074157	-30.042764	-17.268580	-9.801927	112.092186	88.920589	-6.385507	-16.136212
2.566667	0.030186	-3.592882	63.207259	0.193884	0.940135	0.589260	1.878348	1.447518	14.767222	6.495748	0.113372	21.583921	8.559226	0.000000	-1.009122	-1.693779	-20.653550	5.703829	0.099551	22.739514	0.054459	0.000000	0.205171	0.259364	-3.426001	0.381023	0.344954	-3.640126	0.337075	0.630618	-3.640126	0.234490	0.630618	-2.997750	0.190522	0.528895	-2.783625	0.117235	0.401755	-2.569500	1.465515	2.933980	-19.054387	0.000000	0.000000	25.998691	9.742798	12.048651	-24.640864	-33.926549	-2.287220	108.146212	81.315666	2.684726	-9.216178	-30.094572	-16.782193	-9.539900	111.943992	88.677865	-6.538209	-16.319089
2.583333	0.137969	-3.439939	63.114524	0.194051	0.940426	0.589029	1.738617	1.459394	14.409843	6.672028	0.116449	21.531513	8.921225	0.000000	-1.166320	-1.745644	-20.843785	5.769408	0.100695	22.858995	0.020438	0.000000	0.196569	0.266222	-3.382580	0.365048	0.354076	-3.593991	0.322943	0.647293	-3.593991	0.224658	0.647293	-2.959757	0.182534	0.542881	-2.748346	0.112319	0.412378	-2.536935	1.404071	3.011560	-18.812895	0.000000	0.000000	25.587143	9.275058	12.388894	-25.957459	-35.600180	-0.175840	107.998129	83.073153	1.887750	-12.215212	-30.037462	-16.395804	-9.686579	111.928407	88.341074	-6.423631	-16.207345
2.600000	0.244475	-3.279292	62.981257	0.194379	0.940833	0.588879	1.588877	1.475467	14.106261	6.825201	0.119122	21.485770	9.307720	0.000000	-1.323562	-1.806752	-21.108140	5.860945	0.102293	22.951795	0.018696	0.000000	0.190155	0.271846	-3.332458	0.353138	0.361555	-3.540736	0.312406	0.660966	-3.540736	0.217329	0.660966	-2.915901	0.176578	0.554348	-2.707622	0.108655	0.421089	-2.499343	1.358261	3.075174	-18.534130	0.000000	0.000000	25.155342	8.754289	12.633313	-27.226406	-37.173341	1.765072	108.028823	84.822573	1.397507	-14.901385	-29.952802	-16.162551	-10.238353	112.059504	87.993609	-5.873694	-15.792002
2.616667	0.342943	-3.114694	62.825127	0.194835	0.941358	0.588804	1.429848	1.490602	13.870712	6.941246	0.121148	21.441513	9.691253	0.000000	-1.475937	-1.869361	-21.416662	5.975530	0.104293	23.007065	0.044583	0.000000	0.186342	0.275940	-3.289322	0.346056	0.367000	-3.494905	0.306142	0.670921	-3.494905	0.212970	0.670921	-2.878157	0.173037	0.562697	-2.672575	0.106476	0.427431	-2.466992	1.331023	3.121490	-18.294225	0.000000	0.000000	24.699860	8.234421	12.876186	-28.290395	-38.581455	3.475629	108.219505	86.405426	1.144801	-17.079752	-29.934433	-16.123312	-11.130418	112.353098	87.723441	-4.840336	-15.067175
2.633333	0.434202	-2.937040	62.643867	0.195413	0.942018	0.588807	1.258501	1.500728	13.689148	7.032306	0.122737	21.393231	10.085769	0.000000	-1.635538	-1.927589	-21.766020	6.113467	0.106700	23.012252	0.094760	0.000000	0.182268	0.277274	-3.253152	0.338489	0.368774	-3.456474	0.299448	0.674164	-3.456474	0.208314	0.674164	-2.846508	0.169254	0.565417	-2.643186	0.104148	0.429497	-2.439864	1.301920	3.136579	-18.093057	0.000000	0.000000	24.249844	7.744665	13.043052	-29.169823	-39.719592	4.749846	108.535360	87.667720	1.247174	-18.707625	-30.018810	-16.335926	-12.220893	112.803434	87.712437	-3.405560	-14.154563
2.650000	0.504880	-2.755500	62.458698	0.196065	0.942779	0.588895	1.081262	1.496078	13.573202	7.083724	0.123634	21.328878	10.443821	0.000000	-1.788906	-1.970140	-22.115207	6.267468	0.109388	22.966537	0.166090	0.000000	0.179113	0.275884	-3.236892	0.332631	0.366925	-3.439198	0.294265	0.670783	-3.439198	0.204709	0.670783	-2.832280	0.166325	0.562582	-2.629975	0.102345	0.427344	-2.427669	1.279389	3.120850	-18.002622	0.000000	0.000000	23.798699	7.338615	13.291122	-29.765571	-40.633175	5.674849	108.962859	88.644024	1.420942	-19.872519	-30.274688	-16.811806	-13.399226	113.394103	87.797976	-1.587501	-13.040442
2.666667	0.569089	-2.589163	62.272048	0.196723	0.943600	0.589039	0.909255	1.494461	13.527449	7.099047	0.123902	21.233758	10.747129	0.000000	-1.928236	-2.012620	-22.449371	6.430981	0.112242	22.879097	0.239313	0.000000	0.176444	0.275931	-3.244233	0.327674	0.366988	-3.446998	0.289880	0.670898	-3.446998	0.201658	0.670898	-2.838704	0.163846	0.562678	-2.635939	0.100820	0.427417	-2.433175	1.260321	3.121385	-18.043451	0.000000	0.000000	23.362268	7.038230	13.719111	-30.092404	-41.442391	6.326928	109.536738	89.177927	1.438946	-20.562395	-30.722819	-17.534689	-14.509075	114.074163	87.885286	0.374460	-11.852713
2.683333	0.592098	-2.431879	62.079424	0.197402	0.944435	0.589242	0.752863	1.460801	13.562256	7.083536	0.123631	21.126740	10.969889	0.000000	-2.047068	-2.017403	-22.773675	6.594931	0.115103	22.743004	0.325613	0.000000	0.176262	0.272835	-3.269691	0.327336	0.362870	-3.474047	0.289581	0.663371	-3.474047	0.201450	0.663371	-2.860980	0.163677	0.556365	-2.656624	0.100716	0.422621	-2.452269	1.259022	3.086362	-18.185043	0.000000	0.000000	22.958666	6.823933	14.242392	-30.182247	-42.150181	6.678365	110.262349	89.383497	1.492203	-20.652950	-31.375519	-18.486122	-15.532401	114.829381	87.868979	2.591447	-10.485273
2.700000	0.611824	-2.306826	61.871288	0.198089	0.945243	0.589456	0.613837	1.438182	13.671715	7.037947	0.122835	20.984570	11.133750	0.000000	-2.152007	-2.024461	-23.057067	6.741344	0.117659	22.570888	0.385947	0.000000	0.177788	0.273410	-3.317145	0.330171	0.363635	-3.524467	0.292088	0.664768	-3.524467	0.203194	0.664768	-2.902502	0.165094	0.557537	-2.695180	0.101588	0.423512	-2.487859	1.269924	3.092865	-18.448966	0.000000	0.000000	22.590496	6.735134	15.008776	-30.035483	-43.004812	7.065824	111.185059	89.124334	0.976982	-20.385594	-32.280599	-19.670089	-16.328056	115.588398	87.618228	4.528510	-9.294522
2.716667	0.625249	-2.214370	61.653057	0.198747	0.945980	0.589669	0.489480	1.421306	13.858970	6.954337	0.121376	20.806057	11.222153	0.000000	-2.246016	-2.024673	-23.317953	6.851238	0.119577	22.370705	0.424495	0.000000	0.181661	0.277134	-3.377673	0.337363	0.368588	-3.588778	0.298451	0.673824	-3.588778	0.207620	0.673824	-2.955464	0.168690	0.565132	-2.744360	0.103801	0.429281	-2.533255	1.297586	3.134997	-18.785605	0.000000	0.000000	22.280159	6.715643	15.898213	-29.691266	-43.976989	7.406703	112.322910	88.514497	0.243855	-19.494471	-33.411308	-21.056858	-16.904645	116.336531	86.990604	6.333782	-8.174337
2.733333	0.621374	-2.139702	61.416522	0.199375	0.946631	0.589925	0.380876	1.390990	14.083206	6.843056	0.119434	20.617732	11.313323	0.000000	-2.332520	-2.000904	-23.543777	6.927574	0.120909	22.140555	0.419609	0.000000	0.186816	0.281011	-3.448851	0.346937	0.373745	-3.664405	0.306921	0.683251	-3.664405	0.213513	0.683251	-3.017745	0.173478	0.573038	-2.802192	0.106747	0.435287	-2.586639	1.334411	3.178856	-19.181477	0.000000	0.000000	22.023949	6.781336	16.885021	-29.113021	-45.093695	7.816987	113.598482	88.040138	-0.764712	-18.191458	-34.760272	-22.627987	-17.283003	117.061241	86.073602	7.886495	-7.242110
2.750000	0.614975	-2.089277	61.183127	0.199929	0.947171	0.590203	0.288503	1.364050	14.338696	6.710877	0.117127	20.419493	11.387996	0.000000	-2.406545	-1.971077	-23.727970	6.974160	0.121722	21.890139	0.367920	0.000000	0.194028	0.286531	-3.525814	0.360330	0.381086	-3.746177	0.318769	0.696671	-3.746177	0.221755	0.696671	-3.085087	0.180175	0.584293	-2.864724	0.110868	0.443836	-2.644360	1.385924	3.241293	-19.609519	0.000000	0.000000	21.803223	6.881382	17.890462	-28.317867	-46.339816	8.296682	114.944424	87.668907	-1.772011	-16.386776	-36.274550	-24.314477	-17.507579	117.737265	85.137708	9.224536	-6.509116
2.766667	0.611025	-2.059398	60.949612	0.200365	0.947595	0.590533	0.211214	1.341753	14.617085	6.563017	0.114546	20.217524	11.448148	0.000000	-2.472877	-1.936350	-23.868611	6.986353	0.121935	21.630052	0.270788	0.000000	0.201920	0.293343	-3.600251	0.374986	0.390146	-3.825267	0.331735	0.713234	-3.825267	0.230775	0.713234	-3.150220	0.187503	0.598185	-2.925204	0.115377	0.454388	-2.700189	1.442297	3.318356	-20.023519	0.000000	0.000000	21.607300	6.974229	18.826637	-27.317128	-47.725453	8.955021	116.201013	87.108837	-2.648145	-14.283332	-37.886671	-26.060133	-17.601376	118.356819	84.336247	10.305843	-5.945679
2.783333	0.608771	-2.047444	60.729614	0.200663	0.947901	0.590931	0.152057	1.323965	14.909562	6.412379	0.111917	20.006800	11.472550	0.000000	-2.529097	-1.896397	-23.957207	6.964343	0.121551	21.369596	0.126039	0.000000	0.210440	0.300811	-3.666906	0.390809	0.400078	-3.896087	0.345732	0.731391	-3.896087	0.240512	0.731391	-3.208543	0.195415	0.613413	-2.979361	0.120246	0.465956	-2.750179	1.503155	3.402831	-20.394230	0.000000	0.000000	21.414245	7.016708	19.655514	-26.140901	-49.230458	9.840409	117.184473	86.295872	-3.155743	-12.118925	-39.530389	-27.837772	-17.554241	118.899634	83.698907	11.049758	-5.520980
2.800000	0.600284	-2.033460	60.521696	0.200841	0.948104	0.591428	0.106569	1.297033	15.207904	6.280308	0.109612	19.798002	11.460529	0.000000	-2.584547	-1.840242	-24.001406	6.917350	0.120731	21.125762	-0.044945	0.000000	0.216902	0.305388	-3.720813	0.402809	0.406166	-3.953363	0.356349	0.742520	-3.953363	0.247897	0.742520	-3.255711	0.201415	0.622747	-3.023160	0.123938	0.473046	-2.790609	1.549310	3.454609	-20.694043	0.000000	0.000000	21.224325	7.053838	20.304817	-24.780065	-50.831674	11.037149	117.716246	85.248335	-3.184591	-10.168862	-41.156950	-29.632728	-17.382811	119.367029	83.243093	11.407787	-5.194910
2.816667	0.579529	-2.017277	60.321032	0.200902	0.948206	0.592037	0.084491	1.256371	15.489916	6.181205	0.107882	19.595443	11.425572	0.000000	-2.635648	-1.763839	-24.032334	6.845181	0.119471	20.905346	-0.220682	0.000000	0.221150	0.307440	-3.750348	0.410698	0.408895	-3.984745	0.363328	0.747510	-3.984745	0.252753	0.747510	-3.281555	0.205360	0.626932	-3.047158	0.126365	0.476225	-2.812761	1.579655	3.477824	-20.858311	0.000000	0.000000	21.049020	7.038744	20.781433	-23.462326	-52.457110	12.311592	117.774817	84.092323	-2.668366	-8.436915	-42.629494	-31.473116	-17.011771	119.702423	82.974119	11.312678	-5.031031
2.833333	0.546598	-2.001791	60.143365	0.200876	0.948197	0.592728	0.091860	1.208539	15.737931	6.129990	0.106989	19.408972	11.351454	0.000000	-2.676368	-1.672834	-24.013542	6.753669	0.117874	20.711134	-0.428591	0.000000	0.223388	0.306868	-3.754888	0.414854	0.408135	-3.989568	0.367004	0.746119	-3.989568	0.255310	0.746119	-3.285527	0.207438	0.625766	-3.050846	0.127644	0.475339	-2.816166	1.595638	3.471354	-20.883560	0.000000	0.000000	20.919170	6.979258	21.050213	-22.315038	-54.036073	13.528743	117.406442	82.890385	-1.770713	-6.834995	-43.905104	-33.351816	-16.408763	119.893864	82.898222	10.578574	-5.087479
